<svg xmlns="http://www.w3.org/2000/svg" viewBox="0 0 36 36" role="img" aria-label="Cherry Servers"><title>Cherry Servers</title><path fill="#ff0000" d="M7.6543,3.2267a18.1393,18.1393,0,0,1,24.4616,3.53,16.6937,16.6937,0,0,1-3.463,3.3832,16.5,16.5,0,0,1-2.9471,1.6181c-.0737,0-.0737,0-.1474.0736a1.3736,1.3736,0,0,1-1.6946-.3678c-2.5788-4.1923-7.1469-4.0452-10.8309-.6619-3.61,3.31-4.9365,8.2375-2.21,12.2091,2.8,3.9716,7.8837,4.3394,12.2308,2.1329s5.8207-6.2516,3.2419-10.0026c-.2947-.4413,0-.8091.4421-1.03h.0737a23.9908,23.9908,0,0,0,3.3155-1.8387,29.2571,29.2571,0,0,0,3.5366-3.2362,18.0274,18.0274,0,1,1-26.0088-5.81Z"/></svg>
