<svg xmlns="http://www.w3.org/2000/svg" width="64" height="64" viewBox="0 0 282 355"><g style="fill:#5b307f;fill-opacity:0.94"><path d="M229.373 245.831c-.016.11-.02.217-.02.328 0 .02 0 .032 0 .048v63.147c-.315 3.706-3.419 6.621-7.219 6.621-.058 0-.086.017-.131.021h-62.447c-.007 0-.024 0-.036 0-.082 0-.156.009-.234.012h-39.001c-5.185 0-9.378-4.197-9.378-9.382 0-5.176 4.193-9.381 9.378-9.381.016 0 .032.008.057.008h80.751c.069-.013.107-.029.172-.029 4.91 0 8.935-3.772 9.345-8.571v-81.668c0-.02-.004-.049-.004-.066 0-5.184 4.201-9.381 9.382-9.381 5.172 0 9.385 4.197 9.385 9.381zM68.2 263.837c0-5.172 4.197-9.374 9.385-9.374.017 0 .045 0 .058 0h80.758c.062-.008.103-.025.165-.025 4.914 0 8.939-3.767 9.341-8.57v-81.672c0-.021 0-.041 0-.062 0-5.18 4.205-9.382 9.385-9.382 5.177 0 9.374 4.202 9.374 9.382v38.907c-.004.115-.013.225-.013.332 0 .02.009.037.009.053v63.142c-.324 3.71-3.432 6.626-7.232 6.626-.049 0-.086.017-.127.025h-62.442c0 0-.037-.008-.045-.008-.078 0-.152.008-.225.016H77.585c-5.188 0-9.385-4.201-9.385-9.39zM61.058 156.788c-5.181 0-9.379-4.198-9.379-9.378v-38.891c.005-.119.017-.246.017-.372 0-.017 0-.025 0-.046V44.959c.312-3.714 3.42-6.63 7.216-6.63.033 0 .041-.004.061-.008h101.795c5.181 0 9.378 4.202 9.378 9.382 0 5.176-4.197 9.378-9.378 9.378-.024 0-.041 0-5.957 0H74.052c5.83.003 5.785.024 5.721.024-4.903 0-8.933 3.768-9.341 8.571v81.668c0 .021 0 .045 0 .066 0 5.18-4.203 9.378-9.374 9.378zM212.719 90.267c0 5.18-4.205 9.378-9.39 9.378-.016 0-.033 0-.062 0h-80.759c-.061.008-.098.025-.172.025-4.905 0-8.927 3.771-9.336 8.574v81.665c0 .02 0 .041 0 .065 0 5.18-4.198 9.382-9.37 9.382-5.184 0-9.386-4.202-9.386-9.382v-38.887c.004-.126.013-.245.013-.377 0-.012-.005-.024-.005-.045V87.524c.328-3.714 3.432-6.63 7.228-6.63.025 0 .046 0 .058-.013h101.791c5.185 0 9.39 4.206 9.39 9.386zM150.895 0H49.181l-.007.004c-.054 0-.102-.004-.156-.004C22.31 0 .635 21.369.058 47.937L0 47.989v175.9C0 295.93 58.408 354.33 130.444 354.33H234.12l.09-.094c26.11-.999 46.991-22.363 47.118-48.687l.008-.008V130.44C281.336 58.396 222.932 0 150.895 0"/></g></svg>
